Coordinates
version=1
nRows=21
nColumns=11
inDegrees=yes

Units are S.I. units (second, meters, Newtons, ...)
If the header above contains a line with 'inDegrees', this indicates whether rotational values are in degrees (yes) or radians (no).

endheader
time	pelvis_tilt	pelvis_tx	pelvis_ty	hip_flexion_l	hip_flexion_r	knee_angle_l	knee_angle_r	ankle_angle_l	ankle_angle_r	lumbar_extension
      3.00000000	    -99.80561950	      0.31172622	      0.80888558	    108.50002369	     95.98896146	     39.51683957	     11.49850415	   -147.16691119	   -171.51488815	    101.63456169
      3.01000000	    -99.51033946	      0.30151878	      0.81076962	    106.74318911	     96.73083241	     41.08576982	     10.90568132	   -149.87773823	   -171.57077503	    101.37867757
      3.02000000	    -99.08836280	      0.29180493	      0.81262436	    104.75623651	     97.32509465	     42.53578665	     10.30748141	   -152.50440224	   -171.59903972	    101.02616601
      3.03000000	    -98.60708621	      0.28239209	      0.81449788	    102.69317325	     97.83245668	     43.75979092	      9.72678833	   -154.82865472	   -171.59486465	    100.62462124
      3.04000000	    -98.17527922	      0.27330775	      0.81626249	    100.63751856	     98.33028673	     44.85845497	      9.19613966	   -157.09101017	   -171.59562395	    100.31266301
      3.05000000	    -97.53470587	      0.26437169	      0.81794681	     98.37544404	     98.62112866	     45.73420124	      8.68113965	   -159.12598770	   -171.60351509	     99.76049742
      3.06000000	    -96.93742542	      0.25567416	      0.81957950	     96.13196702	     98.90292749	     46.44271519	      8.22393706	   -160.97941429	   -171.59291516	     99.28764216
      3.07000000	    -96.47230656	      0.24709088	      0.82106998	     94.03577972	     99.25911128	     47.05561133	      7.82706250	   -162.55149041	   -171.55108278	     98.97570186
      3.08000000	    -96.00347231	      0.23876342	      0.82238199	     91.89470778	     99.55960868	     47.38717510	      7.49403683	   -164.06300467	   -171.48900117	     98.68710396
      3.09000000	    -95.54174426	      0.23043653	      0.82364237	     89.82094982	     99.85363565	     47.60170292	      7.16167721	   -165.56259009	   -171.43667485	     98.38967030
      3.10000000	    -95.22494588	      0.22215664	      0.82475865	     87.90966680	    100.23186747	     47.67243088	      6.91066662	   -166.87968282	   -171.25363317	     98.26735945
      3.11000000	    -94.90364181	      0.21393094	      0.82576164	     86.05649133	    100.55970301	     47.49581345	      6.73589941	   -168.24759683	   -171.04481717	     98.12651403
      3.12000000	    -94.65546623	      0.20570826	      0.82657489	     84.31092871	    100.93080089	     47.14600629	      6.62092846	   -169.39073450	   -170.94610393	     98.08507654
      3.13000000	    -94.44502707	      0.19728214	      0.82732810	     82.69428813	    101.32204983	     46.55465505	      6.54158163	   -170.42476033	   -170.73511082	     98.01834022
      3.14000000	    -94.11154581	      0.18940560	      0.82789192	     80.97167680	    101.50663671	     45.82529322	      6.55005359	   -171.37618524	   -170.55177428	     97.88140243
      3.15000000	    -93.84860927	      0.18128251	      0.82835608	     79.40493861	    101.74953875	     44.89880690	      6.62097047	   -172.29691363	   -170.42183394	     97.78353817
      3.16000000	    -93.64252874	      0.17302188	      0.82860459	     77.96334528	    102.04222742	     43.79285916	      6.68706506	   -172.90748075	   -170.26636145	     97.73439241
      3.17000000	    -93.40624113	      0.16483111	      0.82869461	     76.56294137	    102.26426953	     42.55581040	      6.83805546	   -173.51681653	   -170.18583261	     97.62680056
      3.18000000	    -93.10733359	      0.15670584	      0.82861335	     75.16005632	    102.40688582	     41.20146178	      7.01151839	   -173.85816255	   -170.13342869	     97.45639005
      3.19000000	    -92.82570821	      0.14848604	      0.82833594	     73.85049102	    102.55255695	     39.71952320	      7.23774073	   -174.19619073	   -170.14641565	     97.29468133
      3.20000000	    -92.52377580	      0.14026384	      0.82790808	     72.62227202	    102.66395272	     38.08521233	      7.49057049	   -174.20724873	   -170.12625046	     97.10633167
